<svg fill="none" height="15" viewBox="0 0 15 15" width="15" xmlns="http://www.w3.org/2000/svg"><path d="m4.5 4.5.40534-.29275c-.12698-.17581-.35282-.24972-.55917-.183-.20636.06673-.34617.25888-.34617.47575zm3 9.5c-3.58985 0-6.5-2.9101-6.5-6.5h-1c0 4.1421 3.35786 7.5 7.5 7.5zm6.5-6.5c0 3.5899-2.9101 6.5-6.5 6.5v1c4.1421 0 7.5-3.3579 7.5-7.5zm-6.5-6.5c3.5899 0 6.5 2.91015 6.5 6.5h1c0-4.14214-3.3579-7.5-7.5-7.5zm0-1c-4.14214 0-7.5 3.35786-7.5 7.5h1c0-3.58985 2.91015-6.5 6.5-6.5zm-2.5 12v-7.5h-1v7.5zm-.90534-7.20725 6.50004 8.99995.8106-.5854-6.49996-9.00005zm5.90534-.79275v6h1v-6z" fill="#000"/></svg>